<svg width="128" height="46" viewBox="0 0 128 46" fill="none" xmlns="http://www.w3.org/2000/svg">
<g clip-path="url(#clip0_3311_5115)">
<path d="M112.35 41.8899H117.44V43.8718H109.678V32.7013H117.335V34.6831H112.35V37.1905H117.065V39.1423H112.35V41.8899ZM90.7451 28.5874H88.0425L92.1113 17.4169H95.1742L99.243 28.5874H96.5405L95.6953 25.99H91.5903L90.7451 28.5874ZM93.2074 21.0203L92.2058 24.0982H95.0798L94.0782 21.0203C93.883 20.4348 93.7479 19.9093 93.6728 19.4288H93.6428C93.5377 19.9093 93.4026 20.4348 93.2074 21.0203ZM84.4241 12.4323L82.9528 13.9037L84.4241 15.375L85.8955 13.9037L84.4241 12.4323ZM94.2734 2.86831L95.4145 4.00938L96.7957 2.62809L95.4145 1.24679L94.2734 2.38786L93.1323 1.24679L91.751 2.62809L93.1323 4.00938L94.2734 2.86831ZM71.0466 11.9068C72.9336 11.9068 73.6257 11.1293 73.7658 9.24917C74.7866 11.2717 75.5691 11.6666 77.0372 11.6666H81.1961C82.899 11.6666 83.6721 10.8326 83.9147 9.41079C84.1937 10.8158 85.0456 11.6816 86.7063 11.6816L92.3215 11.6666C94.5887 11.6666 96.1051 10.4504 96.1051 7.92805C96.1051 6.81702 95.8198 5.76603 95.3544 4.79011L93.1623 5.69095C93.6578 6.54676 93.9281 7.29747 93.9281 7.82296C93.9281 8.78385 93.2825 9.11417 92.3215 9.11417H87.2318C86.1507 9.11417 85.4901 8.79887 85.4901 7.71786V5.82608H83.4632V7.71786C83.4632 8.76884 82.7876 9.11417 81.7216 9.11417H77.5177C76.4967 9.11417 75.9712 8.70879 75.4607 7.50766L73.9894 4.00938H71.3619L72.488 6.62183C72.8633 7.50766 72.9984 7.98811 72.9984 8.33344C72.9984 8.934 72.4579 9.27932 71.497 9.27932C70.2659 9.27932 69.8004 9.03909 69.8004 8.40851H68.0438C68.0438 10.7357 68.7344 11.9068 71.0466 11.9068ZM85.7604 28.5874V19.549H89.0034V17.4169H79.8448V19.549H83.0879V28.5874H85.7604ZM99.4833 10.1501C99.4833 9.26431 99.183 8.3034 98.6575 7.28244L100.85 6.3816L101.345 7.62777C101.78 8.63372 102.291 9.11417 103.387 9.11417H104.508L105.459 7.90672V0.22583H107.876V3.33374C107.876 4.19875 107.772 4.88649 107.486 5.70818L107.546 5.75409C108.417 4.89088 109.44 4.41476 110.774 4.41476C112.621 4.41476 114.212 5.48076 114.212 8.03315C114.212 8.41897 114.167 8.78 114.08 9.11417H123.716C125.146 9.11417 126.148 8.80589 126.257 7.49872C125.743 7.82807 125.105 7.95808 124.467 7.95808C122.41 7.95808 121.254 6.99718 121.254 4.97028C121.254 3.04848 122.605 1.36691 124.542 1.36691C127.019 1.36691 127.815 3.75414 127.815 6.23146C127.815 9.54957 127.034 11.6666 123.716 11.6666H102.861C101.93 11.6666 101.206 11.3499 100.72 10.6212C100.625 13.4956 99.7496 15.5252 96.8708 15.5252C96.4354 15.5252 95.97 15.4801 95.5045 15.375V12.7326C96.015 12.8527 96.4804 12.8977 96.8258 12.8977C98.6425 12.8977 99.4833 11.6215 99.4833 10.1501ZM124.617 5.76603C125.169 5.76603 125.699 5.70514 126.185 5.50495C125.948 4.50659 125.213 3.75414 124.091 3.75414C123.401 3.75414 122.8 4.1445 122.8 4.80513C122.8 5.6309 123.791 5.76603 124.617 5.76603ZM106.217 9.11417H110.338C111.81 9.11417 112.455 8.81388 112.455 8.10823C112.455 7.38755 111.735 6.98216 110.459 6.98216C109.017 6.98216 107.996 7.49264 106.945 8.48357L106.217 9.11417ZM124.767 37.2505L123.145 36.8902C122.32 36.695 121.524 36.4548 121.524 35.599C121.524 34.7282 122.395 34.4429 123.236 34.4429C124.437 34.4429 125.548 35.0285 126.133 36.1095L127.875 34.6231C126.989 33.0316 125.172 32.431 123.416 32.431C121.013 32.431 119.062 33.5421 119.062 35.7942C119.062 37.746 120.233 38.7069 122.139 39.1273L123.641 39.4426C124.467 39.5927 125.247 39.893 125.247 40.7939C125.247 41.7998 124.317 42.1301 123.341 42.1301C121.869 42.1301 120.893 41.3494 120.308 40.1633L118.326 41.5746C119.227 43.4063 121.179 44.142 123.236 44.142C125.758 44.142 127.815 43.0159 127.815 40.5536C127.815 38.5868 126.704 37.6409 124.767 37.2505ZM118.506 2.86831L119.647 4.00938L121.028 2.62809L119.647 1.24679L118.506 2.38786L117.365 1.24679L115.984 2.62809L117.365 4.00938L118.506 2.86831ZM72.3078 28.5874H69.6203L73.6741 17.4169H76.752L80.8058 28.5874H78.1182L77.2679 25.99H73.1581L72.3078 28.5874ZM74.7851 21.0203L73.7775 24.0982H76.6486L75.6409 21.0203C75.4607 20.4348 75.3256 19.9093 75.2355 19.4288H75.2055C75.1154 19.9093 74.9653 20.4348 74.7851 21.0203ZM99.4833 34.8333H102.726V43.8718H105.399V34.8333H108.642V32.7013H99.4833V34.8333ZM76.9418 39.2158L79.3944 43.8718H76.4967L74.3645 39.5927H72.7732V43.8718H70.1007V32.7013H75.0253C77.4876 32.7013 79.1092 33.7373 79.1092 36.1395C79.1092 37.6696 78.2842 38.7425 76.9418 39.2158ZM72.7732 37.761H74.4848C75.6259 37.761 76.3616 37.2806 76.3616 36.1395C76.3616 35.0134 75.6109 34.593 74.4848 34.593H72.7732V37.761ZM26.305 20.2396H26.2442C24.8906 9.92708 16.0611 2.13262 5.5552 2.13262H0V11.7416H4.80452C11.1254 11.7416 15.9149 16.5161 15.9149 23.0022C15.9149 24.8583 15.5744 26.571 14.9698 28.074L11.8912 24.5336H2.52235L9.86168 32.9738C8.40771 33.7963 6.67361 34.2627 4.80452 34.2627H0V43.8718H5.5552C9.59168 43.8718 13.3734 42.7239 16.5089 40.6181L19.3381 43.8718H28.7069L21.8761 36.0163C24.1765 33.1352 25.7365 29.629 26.2445 25.7648H26.305C27.6586 36.0773 36.4881 43.8718 46.9941 43.8718H52.5493V34.2627H47.7448C41.4238 34.2627 36.6343 29.4883 36.6343 23.0022C36.6343 16.5161 41.4238 11.7416 47.7448 11.7416H52.5493V2.13262H46.9941C36.4881 2.13262 27.6586 9.92708 26.305 20.2396ZM96.3753 32.7013L100.444 43.8718H97.7567L96.9063 41.2743H92.7914L91.9462 43.8718H89.2587L93.3125 32.7013H96.3753ZM96.287 39.3825L95.2793 36.3047C95.0991 35.7191 94.949 35.1936 94.8739 34.7132H94.8439C94.7388 35.1936 94.6037 35.7191 94.4085 36.3047L93.407 39.3825H96.287ZM83.3732 39.1423H88.0876V37.1905H83.3732V34.6831H88.3578V32.7013H80.6856V43.8718H88.4629V41.8899H83.3732V39.1423ZM69.2449 23.0022C69.2449 25.3063 68.3653 27.115 66.7654 28.0816L68.1789 30.7194H65.2962L64.3425 28.8314C64.1404 28.8486 63.9329 28.8577 63.7197 28.8577C60.2215 28.8577 58.1946 26.5005 58.1946 23.0022C58.1946 19.5039 60.2215 17.1467 63.7197 17.1467C67.218 17.1467 69.2449 19.5039 69.2449 23.0022ZM63.7197 26.7557C65.7166 26.7557 66.4973 24.9991 66.4973 23.0022C66.4973 21.0053 65.7166 19.2487 63.7197 19.2487C61.7229 19.2487 60.9421 21.0053 60.9421 23.0022C60.9421 24.9991 61.7229 26.7557 63.7197 26.7557ZM57.6691 11.9368C57.654 13.9487 59.3657 15.5252 62.4586 15.5252C64.0801 15.5252 66.137 15.0898 67.4583 14.3991L66.5424 11.8617C64.7257 12.6575 63.1942 13.0328 61.7679 13.0328C60.1914 13.0328 59.4407 12.5674 59.4257 11.6666C59.4107 10.3904 61.1223 9.4745 64.9809 8.91899L66.167 8.73881V6.17141L63.99 6.4867C63.3894 6.56178 63.0291 6.57679 62.6988 6.57679C61.6628 6.57679 60.4767 6.30654 60.4767 5.27056C60.4767 4.54989 61.0772 4.12949 61.8129 4.12949C62.4135 4.12949 63.2243 4.60994 63.5996 5.09039L65.4464 3.21364C64.6056 2.13262 63.4195 1.51704 62.1883 1.51704C60.2815 1.51704 58.675 3.00344 58.675 5.06037C58.675 6.38222 59.3424 7.39966 60.3298 8.14928C58.8391 9.00393 57.6795 10.3018 57.6691 11.9368ZM63.7347 41.98C61.843 41.98 60.9872 40.2984 60.9872 38.3015C60.9872 36.3197 61.7829 34.593 63.6597 34.593C65.071 34.593 65.8217 35.554 65.9568 36.9352L68.6744 36.4698C68.3891 33.8273 66.2872 32.431 63.7197 32.431C60.1764 32.431 58.2246 34.9083 58.2246 38.3015C58.2246 41.9199 60.1914 44.142 63.6897 44.142C66.3322 44.142 68.1789 42.7607 68.7344 40.2534L66.0169 39.6678C65.8217 41.0191 65.086 41.98 63.7347 41.98ZM107.101 23.9237L109.558 28.5874H106.66L104.528 24.3084H102.937V28.5874H100.264V17.4169H105.189C107.651 17.4169 109.272 18.4529 109.272 20.8552C109.272 22.3868 108.446 23.4603 107.101 23.9237ZM102.937 22.4767H104.648C105.789 22.4767 106.525 21.9962 106.525 20.8552C106.525 19.7291 105.774 19.3087 104.648 19.3087H102.937V22.4767Z" fill="white"/>
</g>
<defs>
<clipPath id="clip0_3311_5115">
<rect width="128" height="45.6348" fill="white" transform="translate(0 0.182617)"/>
</clipPath>
</defs>
</svg>
